/* XPM */
static char * Beef_xpm[] = {
"64 64 172 2",
"  	c #E0CBB9",
". 	c #D2B395",
"+ 	c #C79E6E",
"@ 	c #CAA277",
"# 	c #C89F70",
"$ 	c #DCC4AF",
"% 	c #C69965",
"& 	c #D0AF8C",
"* 	c #D7BBA2",
"= 	c #CFAC88",
"- 	c #DDC8B5",
"; 	c #E1CDBC",
"> 	c #E2D0C0",
", 	c #CEAA86",
"' 	c #CDA982",
") 	c #D7BCA2",
"! 	c #DAC2AB",
"~ 	c #E1CEBE",
"{ 	c #C59965",
"] 	c #C9A276",
"^ 	c #CDA882",
"/ 	c #D1B191",
"( 	c #D8BDA4",
"_ 	c #D2B191",
": 	c #D0AE8C",
"< 	c #E2CFC0",
"[ 	c #D6BAA0",
"} 	c #E3D1C1",
"| 	c #CFAC89",
"1 	c #D6B99F",
"2 	c #D3B497",
"3 	c #DBC4AE",
"4 	c #D3B396",
"5 	c #C59761",
"6 	c #D0AE8B",
"7 	c #C89E70",
"8 	c #C69A67",
"9 	c #D5B89C",
"0 	c #C79D6C",
"a 	c #DEC8B5",
"b 	c #C9A175",
"c 	c #DBC2AC",
"d 	c #DAC2AC",
"e 	c #D6B99D",
"f 	c #D6B99E",
"g 	c #D0B08F",
"h 	c #D0AE8D",
"i 	c #CCA780",
"j 	c #D9C2AA",
"k 	c #CBA47A",
"l 	c #CFAE8B",
"m 	c #C89E6F",
"n 	c #C39356",
"o 	c #C9A174",
"p 	c #CEAA85",
"q 	c #CBA57B",
"r 	c #CCA67E",
"s 	c #D8BDA5",
"t 	c #E3D0C1",
"u 	c #DEC8B4",
"v 	c #DFC9B6",
"w 	c #DFCAB9",
"x 	c #CCA57D",
"y 	c #CFAC87",
"z 	c #D0AF8D",
"A 	c #C4965E",
"B 	c #CEAC88",
"C 	c #D0AF8E",
"D 	c #CBA47B",
"E 	c #D7BCA3",
"F 	c #CAA47B",
"G 	c #D3B598",
"H 	c #E8D9CD",
"I 	c #F8E6E8",
"J 	c #F8C9BD",
"K 	c #D9B0AD",
"L 	c #D06866",
"M 	c #D18F8C",
"N 	c #AD3032",
"O 	c #6D1821",
"P 	c #DB8376",
"Q 	c #EF9389",
"R 	c #CA4A42",
"S 	c #C23A4A",
"T 	c #C72826",
"U 	c #F5AD96",
"V 	c #A9909C",
"W 	c #DCA496",
"X 	c #F0B7AD",
"Y 	c #A5413B",
"Z 	c #9C5360",
"` 	c #902A2D",
" .	c #943549",
"..	c #800F11",
"+.	c #D198A5",
"@.	c #8D2419",
"#.	c #AE261B",
"$.	c #B00B0E",
"%.	c #A4152A",
"&.	c #CBA57C",
"*.	c #881327",
"=.	c #D5B79C",
"-.	c #D8BEA5",
";.	c #997081",
">.	c #CAA57C",
",.	c #CCA67D",
"'.	c #DCC5B0",
").	c #CCA781",
"!.	c #DBC1C7",
"~.	c #D1B08F",
"{.	c #E7D7CA",
"].	c #D2B292",
"^.	c #CEAB87",
"/.	c #D2B393",
"(.	c #C79C6C",
"_.	c #C59966",
":.	c #D6BBA1",
"<.	c #CBA67E",
"[.	c #CAA377",
"}.	c #C89F72",
"|.	c #D1B091",
"1.	c #C69A66",
"2.	c #CDA984",
"3.	c #DAC0AA",
"4.	c #E99EA3",
"5.	c #BDADBE",
"6.	c #CBA47C",
"7.	c #E7D8CC",
"8.	c #C28F4E",
"9.	c #C79C6A",
"0.	c #DAC0A8",
"a.	c #D9BEA7",
"b.	c #D5B79A",
"c.	c #D8BEA6",
"d.	c #CBA57D",
"e.	c #C1904F",
"f.	c #DDC7B3",
"g.	c #D2B394",
"h.	c #CFAE8C",
"i.	c #C59963",
"j.	c #D3B496",
"k.	c #DAC1AA",
"l.	c #C29152",
"m.	c #C39254",
"n.	c #C9A071",
"o.	c #DFC8B5",
"p.	c #D7BCA4",
"q.	c #DCC4AE",
"r.	c #D4B89B",
"s.	c #C4965F",
"t.	c #D5B99F",
"u.	c #C89F71",
"v.	c #D7BAA0",
"w.	c #D5B99C",
"x.	c #D2B192",
"y.	c #C69B66",
"z.	c #D2B294",
"A.	c #D7BBA1",
"B.	c #C79D6D",
"C.	c #CEAC87",
"D.	c #C69864",
"E.	c #DDC6B1",
"F.	c #C79E6F",
"G.	c #C29355",
"H.	c #CDA782",
"I.	c #D1AF8F",
"J.	c #D5B99D",
"K.	c #CEAA84",
"L.	c #C49760",
"M.	c #CEA984",
"N.	c #DDC6B2",
"O.	c #C69863",
"        . . . . + + + + @ @ @ @ # # # # $ $ $ $ % % % % & & & & * * * * = = = = - - - - ; ; ; ; > > > > , , , , ' ' ' ' ) ) ) ) ",
"        . . . . + + + + @ @ @ @ # # # # $ $ $ $ % % % % & & & & * * * * = = = = - - - - ; ; ; ; > > > > , , , , ' ' ' ' ) ) ) ) ",
"        . . . . + + + + @ @ @ @ # # # # $ $ $ $ % % % % & & & & * * * * = = = = - - - - ; ; ; ; > > > > , , , , ' ' ' ' ) ) ) ) ",
"        . . . . + + + + @ @ @ @ # # # # $ $ $ $ % % % % & & & & * * * * = = = = - - - - ; ; ; ; > > > > , , , , ' ' ' ' ) ) ) ) ",
"! ! ! ! ~ ~ ~ ~ { { { { ] ] ] ] { { { { ^ ^ ^ ^ / / / / ^ ^ ^ ^ ( ( ( ( _ _ _ _ : : : : < < < < [ [ [ [ } } } } | | | | 1 1 1 1 ",
"! ! ! ! ~ ~ ~ ~ { { { { ] ] ] ] { { { { ^ ^ ^ ^ / / / / ^ ^ ^ ^ ( ( ( ( _ _ _ _ : : : : < < < < [ [ [ [ } } } } | | | | 1 1 1 1 ",
"! ! ! ! ~ ~ ~ ~ { { { { ] ] ] ] { { { { ^ ^ ^ ^ / / / / ^ ^ ^ ^ ( ( ( ( _ _ _ _ : : : : < < < < [ [ [ [ } } } } | | | | 1 1 1 1 ",
"! ! ! ! ~ ~ ~ ~ { { { { ] ] ] ] { { { { ^ ^ ^ ^ / / / / ^ ^ ^ ^ ( ( ( ( _ _ _ _ : : : : < < < < [ [ [ [ } } } } | | | | 1 1 1 1 ",
"2 2 2 2 3 3 3 3 4 4 4 4 5 5 5 5 6 6 6 6 7 7 7 7 8 8 8 8 9 9 9 9 0 0 0 0 a a a a b b b b c c c c d d d d e e e e f f f f g g g g ",
"2 2 2 2 3 3 3 3 4 4 4 4 5 5 5 5 6 6 6 6 7 7 7 7 8 8 8 8 9 9 9 9 0 0 0 0 a a a a b b b b c c c c d d d d e e e e f f f f g g g g ",
"2 2 2 2 3 3 3 3 4 4 4 4 5 5 5 5 6 6 6 6 7 7 7 7 8 8 8 8 9 9 9 9 0 0 0 0 a a a a b b b b c c c c d d d d e e e e f f f f g g g g ",
"2 2 2 2 3 3 3 3 4 4 4 4 5 5 5 5 6 6 6 6 7 7 7 7 8 8 8 8 9 9 9 9 0 0 0 0 a a a a b b b b c c c c d d d d e e e e f f f f g g g g ",
"h h h h i i i i j j j j k k k k l l l l m m m m n n n n o o o o p p p p q q q q r r r r s s s s t t t t u u u u v v v v t t t t ",
"h h h h i i i i j j j j k k k k l l l l m m m m n n n n o o o o p p p p q q q q r r r r s s s s t t t t u u u u v v v v t t t t ",
"h h h h i i i i j j j j k k k k l l l l m m m m n n n n o o o o p p p p q q q q r r r r s s s s t t t t u u u u v v v v t t t t ",
"h h h h i i i i j j j j k k k k l l l l m m m m n n n n o o o o p p p p q q q q r r r r s s s s t t t t u u u u v v v v t t t t ",
"w w w w x x x x : : : : y y y y z z z z / / / / A A A A B B B B C C C C D D D D E E E E F F F F G G G G a a a a B B B B H H H H ",
"w w w w x x x x : : : : y y y y I I I I I / / / A A A A B B B B C C C C I J K L E E E E F I F F G G G G a a a a B B B B H H H H ",
"w w w w x x x x : : : : M N O L P Q R S L L R R T R Q U B J M V W X Y Z ` Y  .Z P Z ..N  .Y  .+.M X Q P U Q P a B B B B H H H H ",
"w w w w x x x x : : :  .` @.` @.R U P L #.S S #.T #.N Y Y $.%.P W W P M Y ` Y O L Z ..Y N ....` Y %.%.L X U P a B B B B H H H H ",
"E E E E &.&.&.&.] ] I Y ` @.@.@.Y P U R L +.K W L R R Y $.Y R R M M L S Y O Z O ..@.Y ` *...` O O O *.*.U P P   =.=.=.=.-.-.-.-.",
"E E E E &.&.&.&.] ] ;.` O O @.O O O @.*... .` *.O ..L M R R @.#.$.$.N N M ` *...Y O O ` O O O O O  .` *.Z W +.  =.=.=.=.-.-.-.-.",
"E E E E &.&.&.&.] ] Y ..@.O ` ` O @.....O O @.O @.` P Y W P N ` Y L P W X %.L *...*.O `  .O O `  .@.@.` *.*.P   =.=.=.=.-.-.-.-.",
"E E E E &.&.&.&.] ] %.N ` ` Y Y ` ......*.@.@.@. .` R @.U W M P ` ..N Q W ` Z Y N Y ..O Y @.Y P ..O O Z Z ` ..  =.=.=.=.-.-.-.-.",
">.>.>.>.,.,.,.,.'.'.O O O Y #. .O ` ` ` ....Y O ` N  .@.R L T @.@.O ..O @.@...Y Y ` ` Y Y @.Y O Y L Z Y Y Z R X I u u u ).).).).",
">.>.>.>.,.,.,.,.'.'.O Z O ;.W L R O *.` ` Y  .@.` Z `  .R T S ..@.P Q *.Y ` Y Y Y Y ` ..O ` ` @.Y Z ` ` W L X !.I u u u ).).).).",
">.>.>.>.,.,.,.,.'.I O ;.Y ;.V O @.Y ..` O  .@.@.%.Y Y P U U N ` @.` *...R ......Y @.Y Y ` @...O O ` @.#.Q J U P I u u u ).).).).",
">.>.>.>.,.,.,.,.'.;. .V O V V ;.O .. .O Y L ..P N ` O #.J U M @.@. .@.` ..@.` ` ....*.@.@...@...` P U X U X U K u u u u ).).).).",
").).).).&.&.&.&.~.` O  .O ;.;.O O ..O Z ..*. .L ` ` Y @.Q P ..@.@.@.@.O @.@.` ..` N ` @.@.` ..@.Y U Q J U U W K K {.{.{.].].].].",
").).).).&.&.&.&.~.~.;.;.O V ;.;.O O O  ... .%. .L *.*.Y P U N @.Y Y @.....N @.N @...Y ..Y ` ` ..P U U X X W M !.{.{.{.{.].].].].",
").).).).&.&.&.&.~.~.~.~.;.;.V O ;.;.;...@.@.$.` Z L Q S $.L @...` O Y @.` %.+.Y O ` @.*...@.M W X !.X X W W W ^.{.{.{.{.].].].].",
").).).).&.&.&.&.~.~.~.~.u Z Z O ;.;.;.;.O *.@.R *.@.K @.L P Y N  .@... .....` @.O @.O Y L ;.U J J I X X W R I ^.{.{.{.{.].].].].",
"/./././.(.(.(.(._._._._.:.;.O V ;.;.;.Y L ` ` ` U S Q T Q P @.O *.Z ..Y  .*.*.` *.` Z ` L J K I X X X X Q L ' ' | | | | <.<.<.<.",
"/./././.(.(.(.(._._._._.:.:.;.;.;.;.;.;.;.;.%. .` M T %.R Z N ` O ` O O Y O ` O @.*.Y X U W J K J X J K ' ' ' ' | | | | <.<.<.<.",
"/./././.(.(.(.(._._._._.:.:.:.I ;.;.Z ;.;.;.O ..Y M  ...Q M @.` *.Y O O O L @.` O  .V U J M J K I J K V ' ' ' ' | | | | <.<.<.<.",
"/./././.(.(.(.(._._._._.:.:.:.:.;.;.;.;.;.;.;.U U M O  .K R  ...` @.;.O Y O Z ` *.@.W J X I !.X X !.V q ' ' ' ' | | | | <.<.<.<.",
"4 4 4 4 # # # # [.[.[.[.).).).).l l ;.;.;.;.V P J Z ..+.M  . .O Z Z Z O  .Y  .O Y L U !.K !.Q }.|.|.|.|.1.1.1.1.2.2.2.2.3.3.3.3.",
"4 4 4 4 # # # # [.[.[.[.).).).).l l I Z ;.O V P J ..N P Z L ` `  .Z O ` *.O ..*.S P !.!.!.K }.}.|.|.|.|.1.1.1.1.2.2.2.2.3.3.3.3.",
"4 4 4 4 # # # # [.[.[.[.).).).).l l l Z ;.O P W J +.P S $.4.%.O ..` Z ;. .O *. .Q M !.X !.4.}.}.|.|.|.|.1.1.1.1.2.2.2.2.3.3.3.3.",
"4 4 4 4 # # # # [.[.[.[.).).).).l l l l O ;.W U X N L +.L  .M  .`  . .*.O *.*.O W 5.!.!.}.}.}.}.|.|.|.|.1.1.1.1.2.2.2.2.3.3.3.3.",
"G G G G 6.6.6.6.' ' ' ' % % % % ~.~.~.~.I Z M U X P %.K *.` *.*.*.O ` L Y  .*.` 5.!.!.7.8.8.8.8.^.^.^.^.2.2.2.2.9.9.9.9.0.0.0.0.",
"G G G G 6.6.6.6.' ' ' ' % % % % ~.~.~.~.<.<.W U U P L +.` ` ..O ..Z O ` V Z `  .5.!.!.7.8.8.8.8.^.^.^.^.2.2.2.2.9.9.9.9.0.0.0.0.",
"G G G G 6.6.6.6.' ' ' ' % % % % ~.~.~.~.<.<.U J I I J X N $.` %.*.;.*.*.*. .*.P !.5.7.7.8.8.8.8.^.^.^.^.2.2.2.2.9.9.9.9.0.0.0.0.",
"G G G G 6.6.6.6.' ' ' ' % % % % ~.~.~.~.<.!.I J J J +.4.*.*. .*.X  . ...*.*. .;.5.7.7.7.8.8.8.8.^.^.^.^.2.2.2.2.9.9.9.9.0.0.0.0.",
"a.a.a.a.b.b.b.b.~.~.~.~.^.^.^.^.c.c.c.c.I J I I I X 4.L *.*.M  .O K ..+.*.S ;.Z d.d.d.d.f f f f e.e.e.e.'.'.'.'.}.}.}.}.i i i i ",
"a.a.a.a.b.b.b.b.~.~.~.~.^.^.^.^.c.c.c.W I J I X M Z  .S %. .P *.Z *.%.` O  .O 5.d.d.d.d.f f f f e.e.e.e.'.'.'.'.}.}.}.}.i i i i ",
"a.a.a.a.b.b.b.b.~.~.~.~.^.^.^.^.c.c.c.J X !.I M +. . .*. .%.*. .*. .X  .*.S O f.d.d.d.d.f f f f e.e.e.e.'.'.'.'.}.}.}.}.i i i i ",
"a.a.a.a.b.b.b.b.~.~.~.~.^.^.^.^.c.c.c.I X J !.!.+. . . . . .Z *.L L  .S  .Z I f.d.d.d.d.f f f f e.e.e.e.'.'.'.'.}.}.}.}.i i i i ",
"g.g.g.g.h.h.h.h.i.i.i.i.j.j.j.j.~.~.~.I 1.!.+.1.Z *. . . . .N Z Z  .Z  .R f f f f.f.f.f.k.k.k.k.l.l.l.l.m.m.m.m.h h h h n.n.n.n.",
"g.g.g.g.h.h.h.h.i.i.i.i.j.j.j.j.~.~.~.~.1.1.1.1.5. . . . . .*.S Z Z Z Z Z f f f f.f.f.f.k.k.k.k.l.l.l.l.m.m.m.m.h h h h n.n.n.n.",
"g.g.g.g.h.h.h.h.i.i.i.i.j.j.j.j.~.~.~.~.1.1.1.1.p  . . .Z Z  .V V ;.V Z I f f f f.f.f.f.k.k.k.k.l.l.l.l.m.m.m.m.h h h h n.n.n.n.",
"g.g.g.g.h.h.h.h.i.i.i.i.j.j.j.j.~.~.~.~.1.1.1.1.p p p p I Z Z 5.5.5.r r f f f f f.f.f.f.k.k.k.k.l.l.l.l.m.m.m.m.h h h h n.n.n.n.",
"j.j.j.j.o.o.o.o.^ ^ ^ ^ p.p.p.p.q.q.q.q.r.r.r.r.s.s.s.s.t.t.I 5.I !.c.c.u.u.u.u.v.v.v.v.w.w.w.w.x.x.x.x.y.y.y.y.(.(.(.(.k k k k ",
"j.j.j.j.o.o.o.o.^ ^ ^ ^ p.p.p.p.q.q.q.q.r.r.r.r.s.s.s.s.t.t.t.t.c.c.c.c.u.u.u.u.v.v.v.v.w.w.w.w.x.x.x.x.y.y.y.y.(.(.(.(.k k k k ",
"j.j.j.j.o.o.o.o.^ ^ ^ ^ p.p.p.p.q.q.q.q.r.r.r.r.s.s.s.s.t.t.t.t.c.c.c.c.u.u.u.u.v.v.v.v.w.w.w.w.x.x.x.x.y.y.y.y.(.(.(.(.k k k k ",
"j.j.j.j.o.o.o.o.^ ^ ^ ^ p.p.p.p.q.q.q.q.r.r.r.r.s.s.s.s.t.t.t.t.c.c.c.c.u.u.u.u.v.v.v.v.w.w.w.w.x.x.x.x.y.y.y.y.(.(.(.(.k k k k ",
"| | | | z.z.z.z.A.A.A.A.B.B.B.B.a a a a : : : : C.C.C.C.D.D.D.D.E.E.E.E.C.C.C.C.# # # # g.g.g.g.d d d d F.F.F.F.G.G.G.G.H.H.H.H.",
"| | | | z.z.z.z.A.A.A.A.B.B.B.B.a a a a : : : : C.C.C.C.D.D.D.D.E.E.E.E.C.C.C.C.# # # # g.g.g.g.d d d d F.F.F.F.G.G.G.G.H.H.H.H.",
"| | | | z.z.z.z.A.A.A.A.B.B.B.B.a a a a : : : : C.C.C.C.D.D.D.D.E.E.E.E.C.C.C.C.# # # # g.g.g.g.d d d d F.F.F.F.G.G.G.G.H.H.H.H.",
"| | | | z.z.z.z.A.A.A.A.B.B.B.B.a a a a : : : : C.C.C.C.D.D.D.D.E.E.E.E.C.C.C.C.# # # # g.g.g.g.d d d d F.F.F.F.G.G.G.G.H.H.H.H.",
"I.I.I.I.k.k.k.k.k.k.k.k.k k k k J.J.J.J.. . . . &.&.&.&.l l l l K.K.K.K., , , , L.L.L.L.2.2.2.2.M.M.M.M.N.N.N.N.b b b b O.O.O.O.",
"I.I.I.I.k.k.k.k.k.k.k.k.k k k k J.J.J.J.. . . . &.&.&.&.l l l l K.K.K.K., , , , L.L.L.L.2.2.2.2.M.M.M.M.N.N.N.N.b b b b O.O.O.O.",
"I.I.I.I.k.k.k.k.k.k.k.k.k k k k J.J.J.J.. . . . &.&.&.&.l l l l K.K.K.K., , , , L.L.L.L.2.2.2.2.M.M.M.M.N.N.N.N.b b b b O.O.O.O.",
"I.I.I.I.k.k.k.k.k.k.k.k.k k k k J.J.J.J.. . . . &.&.&.&.l l l l K.K.K.K., , , , L.L.L.L.2.2.2.2.M.M.M.M.N.N.N.N.b b b b O.O.O.O."};
