/* XPM */
static char * Floor2_xpm[] = {
"64 64 171 2",
"  	c #E0CBB9",
". 	c #D2B395",
"+ 	c #C79E6E",
"@ 	c #CAA277",
"# 	c #C89F70",
"$ 	c #DCC4AF",
"% 	c #C69965",
"& 	c #D0AF8C",
"* 	c #D7BBA2",
"= 	c #CFAC88",
"- 	c #DDC8B5",
"; 	c #E1CDBC",
"> 	c #E2D0C0",
", 	c #CEAA86",
"' 	c #CDA982",
") 	c #D7BCA2",
"! 	c #DAC2AB",
"~ 	c #E1CEBE",
"{ 	c #C59965",
"] 	c #C9A276",
"^ 	c #CDA882",
"/ 	c #D1B191",
"( 	c #D8BDA4",
"_ 	c #D2B191",
": 	c #D0AE8C",
"< 	c #E2CFC0",
"[ 	c #D6BAA0",
"} 	c #E3D1C1",
"| 	c #CFAC89",
"1 	c #D6B99F",
"2 	c #D3B497",
"3 	c #DBC4AE",
"4 	c #D3B396",
"5 	c #C59761",
"6 	c #D0AE8B",
"7 	c #C89E70",
"8 	c #C69A67",
"9 	c #D5B89C",
"0 	c #C79D6C",
"a 	c #DEC8B5",
"b 	c #C9A175",
"c 	c #DBC2AC",
"d 	c #DAC2AC",
"e 	c #D6B99D",
"f 	c #D6B99E",
"g 	c #D0B08F",
"h 	c #D0AE8D",
"i 	c #CCA780",
"j 	c #D9C2AA",
"k 	c #CBA47A",
"l 	c #CFAE8B",
"m 	c #C89E6F",
"n 	c #C39356",
"o 	c #C9A174",
"p 	c #CEAA85",
"q 	c #CBA57B",
"r 	c #CCA67E",
"s 	c #D8BDA5",
"t 	c #E3D0C1",
"u 	c #DEC8B4",
"v 	c #DFC9B6",
"w 	c #DFCAB9",
"x 	c #CCA57D",
"y 	c #CFAC87",
"z 	c #D0AF8D",
"A 	c #C4965E",
"B 	c #CEAC88",
"C 	c #D0AF8E",
"D 	c #CBA47B",
"E 	c #D7BCA3",
"F 	c #CAA47B",
"G 	c #D3B598",
"H 	c #E8D9CD",
"I 	c #CBA57C",
"J 	c #C69B69",
"K 	c #CFAE8C",
"L 	c #C39559",
"M 	c #CFAD8B",
"N 	c #D3B597",
"O 	c #D2B292",
"P 	c #D5B79C",
"Q 	c #D8BEA5",
"R 	c #CAA57C",
"S 	c #CCA67D",
"T 	c #DCC5B0",
"U 	c #C79D6D",
"V 	c #CAA378",
"W 	c #D1B18F",
"X 	c #D4B599",
"Y 	c #CDA983",
"Z 	c #C39254",
"` 	c #D0AD8A",
" .	c #C79D6E",
"..	c #D0AD8C",
"+.	c #D7BA9F",
"@.	c #CCA781",
"#.	c #D1B08F",
"$.	c #C79E6F",
"%.	c #CBA57D",
"&.	c #D7BDA4",
"*.	c #C39357",
"=.	c #CEA984",
"-.	c #C79D6A",
";.	c #CEAB87",
">.	c #E7D7CA",
",.	c #D2B393",
"'.	c #C79C6C",
").	c #C59966",
"!.	c #D6BBA1",
"~.	c #CFAD8A",
"{.	c #E0CDBB",
"].	c #D2B294",
"^.	c #C59862",
"/.	c #D8BCA5",
"(.	c #CBA67E",
"_.	c #CAA377",
":.	c #D5BA9F",
"<.	c #DAC0A8",
"[.	c #DAC1AA",
"}.	c #CDA881",
"|.	c #C89F72",
"1.	c #D1B091",
"2.	c #C69A66",
"3.	c #CDA984",
"4.	c #DAC0AA",
"5.	c #CBA47C",
"6.	c #D2B293",
"7.	c #C79B6A",
"8.	c #E4D2C3",
"9.	c #D4B79B",
"0.	c #E7D8CC",
"a.	c #C28F4E",
"b.	c #C79C6A",
"c.	c #D9BEA7",
"d.	c #D5B79A",
"e.	c #D8BEA6",
"f.	c #C79C6B",
"g.	c #DAC0A9",
"h.	c #CFAC8A",
"i.	c #C79E6C",
"j.	c #DDC7B3",
"k.	c #C1904F",
"l.	c #D2B394",
"m.	c #C59963",
"n.	c #D3B496",
"o.	c #E2CFBF",
"p.	c #C29152",
"q.	c #C9A071",
"r.	c #DFC8B5",
"s.	c #D7BCA4",
"t.	c #DCC4AE",
"u.	c #D4B89B",
"v.	c #C4965F",
"w.	c #D5B99F",
"x.	c #C89F71",
"y.	c #D7BAA0",
"z.	c #D5B99C",
"A.	c #D2B192",
"B.	c #C69B66",
"C.	c #D7BBA1",
"D.	c #CEAC87",
"E.	c #C69864",
"F.	c #DDC6B1",
"G.	c #C29355",
"H.	c #CDA782",
"I.	c #D1AF8F",
"J.	c #D5B99D",
"K.	c #CEAA84",
"L.	c #C49760",
"M.	c #DDC6B2",
"N.	c #C69863",
"        . . . . + + + + @ @ @ @ # # # # $ $ $ $ % % % % & & & & * * * * = = = = - - - - ; ; ; ; > > > > , , , , ' ' ' ' ) ) ) ) ",
"        . . . . + + + + @ @ @ @ # # # # $ $ $ $ % % % % & & & & * * * * = = = = - - - - ; ; ; ; > > > > , , , , ' ' ' ' ) ) ) ) ",
"        . . . . + + + + @ @ @ @ # # # # $ $ $ $ % % % % & & & & * * * * = = = = - - - - ; ; ; ; > > > > , , , , ' ' ' ' ) ) ) ) ",
"        . . . . + + + + @ @ @ @ # # # # $ $ $ $ % % % % & & & & * * * * = = = = - - - - ; ; ; ; > > > > , , , , ' ' ' ' ) ) ) ) ",
"! ! ! ! ~ ~ ~ ~ { { { { ] ] ] ] { { { { ^ ^ ^ ^ / / / / ^ ^ ^ ^ ( ( ( ( _ _ _ _ : : : : < < < < [ [ [ [ } } } } | | | | 1 1 1 1 ",
"! ! ! ! ~ ~ ~ ~ { { { { ] ] ] ] { { { { ^ ^ ^ ^ / / / / ^ ^ ^ ^ ( ( ( ( _ _ _ _ : : : : < < < < [ [ [ [ } } } } | | | | 1 1 1 1 ",
"! ! ! ! ~ ~ ~ ~ { { { { ] ] ] ] { { { { ^ ^ ^ ^ / / / / ^ ^ ^ ^ ( ( ( ( _ _ _ _ : : : : < < < < [ [ [ [ } } } } | | | | 1 1 1 1 ",
"! ! ! ! ~ ~ ~ ~ { { { { ] ] ] ] { { { { ^ ^ ^ ^ / / / / ^ ^ ^ ^ ( ( ( ( _ _ _ _ : : : : < < < < [ [ [ [ } } } } | | | | 1 1 1 1 ",
"2 2 2 2 3 3 3 3 4 4 4 4 5 5 5 5 6 6 6 6 7 7 7 7 8 8 8 8 9 9 9 9 0 0 0 0 a a a a b b b b c c c c d d d d e e e e f f f f g g g g ",
"2 2 2 2 3 3 3 3 4 4 4 4 5 5 5 5 6 6 6 6 7 7 7 7 8 8 8 8 9 9 9 9 0 0 0 0 a a a a b b b b c c c c d d d d e e e e f f f f g g g g ",
"2 2 2 2 3 3 3 3 4 4 4 4 5 5 5 5 6 6 6 6 7 7 7 7 8 8 8 8 9 9 9 9 0 0 0 0 a a a a b b b b c c c c d d d d e e e e f f f f g g g g ",
"2 2 2 2 3 3 3 3 4 4 4 4 5 5 5 5 6 6 6 6 7 7 7 7 8 8 8 8 9 9 9 9 0 0 0 0 a a a a b b b b c c c c d d d d e e e e f f f f g g g g ",
"h h h h i i i i j j j j k k k k l l l l m m m m n n n n o o o o p p p p q q q q r r r r s s s s t t t t u u u u v v v v t t t t ",
"h h h h i i i i j j j j k k k k l l l l m m m m n n n n o o o o p p p p q q q q r r r r s s s s t t t t u u u u v v v v t t t t ",
"h h h h i i i i j j j j k k k k l l l l m m m m n n n n o o o o p p p p q q q q r r r r s s s s t t t t u u u u v v v v t t t t ",
"h h h h i i i i j j j j k k k k l l l l m m m m n n n n o o o o p p p p q q q q r r r r s s s s t t t t u u u u v v v v t t t t ",
"w w w w x x x x : : : : y y y y z z z z / / / / A A A A B B B B C C C C D D D D E E E E F F F F G G G G a a a a B B B B H H H H ",
"w w w w x x x x : : : : y y y y z z z z / / / / A A A A B B B B C C C C D D D D E E E E F F F F G G G G a a a a B B B B H H H H ",
"w w w w x x x x : : : : y y y y z z z z / / / / A A A A B B B B C C C C D D D D E E E E F F F F G G G G a a a a B B B B H H H H ",
"w w w w x x x x : : : : y y y y z z z z / / / / A A A A B B B B C C C C D D D D E E E E F F F F G G G G a a a a B B B B H H H H ",
"E E E E I I I I ] ] ] ] J J J J K K K K 0 0 0 0 2 2 2 2 L L L L M M M M J J J J N N N N m m m m O O O O         P P P P Q Q Q Q ",
"E E E E I I I I ] ] ] ] J J J J K K K K 0 0 0 0 2 2 2 2 L L L L M M M M J J J J N N N N m m m m O O O O         P P P P Q Q Q Q ",
"E E E E I I I I ] ] ] ] J J J J K K K K 0 0 0 0 2 2 2 2 L L L L M M M M J J J J N N N N m m m m O O O O         P P P P Q Q Q Q ",
"E E E E I I I I ] ] ] ] J J J J K K K K 0 0 0 0 2 2 2 2 L L L L M M M M J J J J N N N N m m m m O O O O         P P P P Q Q Q Q ",
"R R R R S S S S T T T T U U U U V V V V W W W W X X X X Y Y Y Y Z Z Z Z ` ` ` `  . . . .........q q q q +.+.+.+.u u u u @.@.@.@.",
"R R R R S S S S T T T T U U U U V V V V W W W W X X X X Y Y Y Y Z Z Z Z ` ` ` `  . . . .........q q q q +.+.+.+.u u u u @.@.@.@.",
"R R R R S S S S T T T T U U U U V V V V W W W W X X X X Y Y Y Y Z Z Z Z ` ` ` `  . . . .........q q q q +.+.+.+.u u u u @.@.@.@.",
"R R R R S S S S T T T T U U U U V V V V W W W W X X X X Y Y Y Y Z Z Z Z ` ` ` `  . . . .........q q q q +.+.+.+.u u u u @.@.@.@.",
"@.@.@.@.I I I I #.#.#.#.u u u u $.$.$.$.%.%.%.%.&.&.&.&.( ( ( ( @ @ @ @ *.*.*.*.=.=.=.=.@ @ @ @ -.-.-.-.;.;.;.;.>.>.>.>.O O O O ",
"@.@.@.@.I I I I #.#.#.#.u u u u $.$.$.$.%.%.%.%.&.&.&.&.( ( ( ( @ @ @ @ *.*.*.*.=.=.=.=.@ @ @ @ -.-.-.-.;.;.;.;.>.>.>.>.O O O O ",
"@.@.@.@.I I I I #.#.#.#.u u u u $.$.$.$.%.%.%.%.&.&.&.&.( ( ( ( @ @ @ @ *.*.*.*.=.=.=.=.@ @ @ @ -.-.-.-.;.;.;.;.>.>.>.>.O O O O ",
"@.@.@.@.I I I I #.#.#.#.u u u u $.$.$.$.%.%.%.%.&.&.&.&.( ( ( ( @ @ @ @ *.*.*.*.=.=.=.=.@ @ @ @ -.-.-.-.;.;.;.;.>.>.>.>.O O O O ",
",.,.,.,.'.'.'.'.).).).).!.!.!.!.~.~.~.~.@ @ @ @ o o o o {.{.{.{.].].].]., , , , ^.^.^.^././././.q q q q ' ' ' ' | | | | (.(.(.(.",
",.,.,.,.'.'.'.'.).).).).!.!.!.!.~.~.~.~.@ @ @ @ o o o o {.{.{.{.].].].]., , , , ^.^.^.^././././.q q q q ' ' ' ' | | | | (.(.(.(.",
",.,.,.,.'.'.'.'.).).).).!.!.!.!.~.~.~.~.@ @ @ @ o o o o {.{.{.{.].].].]., , , , ^.^.^.^././././.q q q q ' ' ' ' | | | | (.(.(.(.",
",.,.,.,.'.'.'.'.).).).).!.!.!.!.~.~.~.~.@ @ @ @ o o o o {.{.{.{.].].].]., , , , ^.^.^.^././././.q q q q ' ' ' ' | | | | (.(.(.(.",
"4 4 4 4 # # # # _._._._.@.@.@.@.l l l l :.:.:.:.m m m m <.<.<.<.[.[.[.[.}.}.}.}.^.^.^.^.|.|.|.|.1.1.1.1.2.2.2.2.3.3.3.3.4.4.4.4.",
"4 4 4 4 # # # # _._._._.@.@.@.@.l l l l :.:.:.:.m m m m <.<.<.<.[.[.[.[.}.}.}.}.^.^.^.^.|.|.|.|.1.1.1.1.2.2.2.2.3.3.3.3.4.4.4.4.",
"4 4 4 4 # # # # _._._._.@.@.@.@.l l l l :.:.:.:.m m m m <.<.<.<.[.[.[.[.}.}.}.}.^.^.^.^.|.|.|.|.1.1.1.1.2.2.2.2.3.3.3.3.4.4.4.4.",
"4 4 4 4 # # # # _._._._.@.@.@.@.l l l l :.:.:.:.m m m m <.<.<.<.[.[.[.[.}.}.}.}.^.^.^.^.|.|.|.|.1.1.1.1.2.2.2.2.3.3.3.3.4.4.4.4.",
"G G G G 5.5.5.5.' ' ' ' % % % % #.#.#.#.(.(.(.(.6.6.6.6.7.7.7.7.8.8.8.8.9.9.9.9.0.0.0.0.a.a.a.a.;.;.;.;.3.3.3.3.b.b.b.b.<.<.<.<.",
"G G G G 5.5.5.5.' ' ' ' % % % % #.#.#.#.(.(.(.(.6.6.6.6.7.7.7.7.8.8.8.8.9.9.9.9.0.0.0.0.a.a.a.a.;.;.;.;.3.3.3.3.b.b.b.b.<.<.<.<.",
"G G G G 5.5.5.5.' ' ' ' % % % % #.#.#.#.(.(.(.(.6.6.6.6.7.7.7.7.8.8.8.8.9.9.9.9.0.0.0.0.a.a.a.a.;.;.;.;.3.3.3.3.b.b.b.b.<.<.<.<.",
"G G G G 5.5.5.5.' ' ' ' % % % % #.#.#.#.(.(.(.(.6.6.6.6.7.7.7.7.8.8.8.8.9.9.9.9.0.0.0.0.a.a.a.a.;.;.;.;.3.3.3.3.b.b.b.b.<.<.<.<.",
"c.c.c.c.d.d.d.d.#.#.#.#.;.;.;.;.e.e.e.e.f.f.f.f.g.g.g.g.h.h.h.h.i.i.i.i.j.j.j.j.%.%.%.%.f f f f k.k.k.k.T T T T |.|.|.|.i i i i ",
"c.c.c.c.d.d.d.d.#.#.#.#.;.;.;.;.e.e.e.e.f.f.f.f.g.g.g.g.h.h.h.h.i.i.i.i.j.j.j.j.%.%.%.%.f f f f k.k.k.k.T T T T |.|.|.|.i i i i ",
"c.c.c.c.d.d.d.d.#.#.#.#.;.;.;.;.e.e.e.e.f.f.f.f.g.g.g.g.h.h.h.h.i.i.i.i.j.j.j.j.%.%.%.%.f f f f k.k.k.k.T T T T |.|.|.|.i i i i ",
"c.c.c.c.d.d.d.d.#.#.#.#.;.;.;.;.e.e.e.e.f.f.f.f.g.g.g.g.h.h.h.h.i.i.i.i.j.j.j.j.%.%.%.%.f f f f k.k.k.k.T T T T |.|.|.|.i i i i ",
"l.l.l.l.K K K K m.m.m.m.n.n.n.n.#.#.#.#.2.2.2.2.p p p p o.o.o.o.r r r r f f f f j.j.j.j.[.[.[.[.p.p.p.p.Z Z Z Z h h h h q.q.q.q.",
"l.l.l.l.K K K K m.m.m.m.n.n.n.n.#.#.#.#.2.2.2.2.p p p p o.o.o.o.r r r r f f f f j.j.j.j.[.[.[.[.p.p.p.p.Z Z Z Z h h h h q.q.q.q.",
"l.l.l.l.K K K K m.m.m.m.n.n.n.n.#.#.#.#.2.2.2.2.p p p p o.o.o.o.r r r r f f f f j.j.j.j.[.[.[.[.p.p.p.p.Z Z Z Z h h h h q.q.q.q.",
"l.l.l.l.K K K K m.m.m.m.n.n.n.n.#.#.#.#.2.2.2.2.p p p p o.o.o.o.r r r r f f f f j.j.j.j.[.[.[.[.p.p.p.p.Z Z Z Z h h h h q.q.q.q.",
"n.n.n.n.r.r.r.r.^ ^ ^ ^ s.s.s.s.t.t.t.t.u.u.u.u.v.v.v.v.w.w.w.w.e.e.e.e.x.x.x.x.y.y.y.y.z.z.z.z.A.A.A.A.B.B.B.B.'.'.'.'.k k k k ",
"n.n.n.n.r.r.r.r.^ ^ ^ ^ s.s.s.s.t.t.t.t.u.u.u.u.v.v.v.v.w.w.w.w.e.e.e.e.x.x.x.x.y.y.y.y.z.z.z.z.A.A.A.A.B.B.B.B.'.'.'.'.k k k k ",
"n.n.n.n.r.r.r.r.^ ^ ^ ^ s.s.s.s.t.t.t.t.u.u.u.u.v.v.v.v.w.w.w.w.e.e.e.e.x.x.x.x.y.y.y.y.z.z.z.z.A.A.A.A.B.B.B.B.'.'.'.'.k k k k ",
"n.n.n.n.r.r.r.r.^ ^ ^ ^ s.s.s.s.t.t.t.t.u.u.u.u.v.v.v.v.w.w.w.w.e.e.e.e.x.x.x.x.y.y.y.y.z.z.z.z.A.A.A.A.B.B.B.B.'.'.'.'.k k k k ",
"| | | | ].].].].C.C.C.C.U U U U a a a a : : : : D.D.D.D.E.E.E.E.F.F.F.F.D.D.D.D.# # # # l.l.l.l.d d d d $.$.$.$.G.G.G.G.H.H.H.H.",
"| | | | ].].].].C.C.C.C.U U U U a a a a : : : : D.D.D.D.E.E.E.E.F.F.F.F.D.D.D.D.# # # # l.l.l.l.d d d d $.$.$.$.G.G.G.G.H.H.H.H.",
"| | | | ].].].].C.C.C.C.U U U U a a a a : : : : D.D.D.D.E.E.E.E.F.F.F.F.D.D.D.D.# # # # l.l.l.l.d d d d $.$.$.$.G.G.G.G.H.H.H.H.",
"| | | | ].].].].C.C.C.C.U U U U a a a a : : : : D.D.D.D.E.E.E.E.F.F.F.F.D.D.D.D.# # # # l.l.l.l.d d d d $.$.$.$.G.G.G.G.H.H.H.H.",
"I.I.I.I.[.[.[.[.[.[.[.[.k k k k J.J.J.J.. . . . I I I I l l l l K.K.K.K., , , , L.L.L.L.3.3.3.3.=.=.=.=.M.M.M.M.b b b b N.N.N.N.",
"I.I.I.I.[.[.[.[.[.[.[.[.k k k k J.J.J.J.. . . . I I I I l l l l K.K.K.K., , , , L.L.L.L.3.3.3.3.=.=.=.=.M.M.M.M.b b b b N.N.N.N.",
"I.I.I.I.[.[.[.[.[.[.[.[.k k k k J.J.J.J.. . . . I I I I l l l l K.K.K.K., , , , L.L.L.L.3.3.3.3.=.=.=.=.M.M.M.M.b b b b N.N.N.N.",
"I.I.I.I.[.[.[.[.[.[.[.[.k k k k J.J.J.J.. . . . I I I I l l l l K.K.K.K., , , , L.L.L.L.3.3.3.3.=.=.=.=.M.M.M.M.b b b b N.N.N.N."};
