/* XPM */
static char * Exit_xpm[] = {
"16 16 157 2",
"  	c #E0CBB9",
". 	c #D2B395",
"+ 	c #C79E6E",
"@ 	c #CAA277",
"# 	c #C89F70",
"$ 	c #DCC4AF",
"% 	c #C69965",
"& 	c #D0AF8C",
"* 	c #D7BBA2",
"= 	c #CFAC88",
"- 	c #DDC8B5",
"; 	c #E1CDBC",
"> 	c #E2D0C0",
", 	c #CEAA86",
"' 	c #CDA982",
") 	c #D7BCA2",
"! 	c #DAC2AB",
"~ 	c #E1CEBE",
"{ 	c #C59965",
"] 	c #C9A276",
"^ 	c #CDA882",
"/ 	c #D1B191",
"( 	c #D8BDA4",
"_ 	c #D2B191",
": 	c #D0AE8C",
"< 	c #E2CFC0",
"[ 	c #D6BAA0",
"} 	c #E3D1C1",
"| 	c #CFAC89",
"1 	c #D6B99F",
"2 	c #D3B497",
"3 	c #DBC4AE",
"4 	c #D3B396",
"5 	c #C59761",
"6 	c #D0AE8B",
"7 	c #C89E70",
"8 	c #C69A67",
"9 	c #D5B89C",
"0 	c #C79D6C",
"a 	c #DEC8B5",
"b 	c #C9A175",
"c 	c #DBC2AC",
"d 	c #DAC2AC",
"e 	c #D6B99D",
"f 	c #D6B99E",
"g 	c #D0B08F",
"h 	c #D0AE8D",
"i 	c #CCA780",
"j 	c #D9C2AA",
"k 	c #CBA47A",
"l 	c #CFAE8B",
"m 	c #C89E6F",
"n 	c #C39356",
"o 	c #C9A174",
"p 	c #CEAA85",
"q 	c #CBA57B",
"r 	c #CCA67E",
"s 	c #D8BDA5",
"t 	c #E3D0C1",
"u 	c #DEC8B4",
"v 	c #DFC9B6",
"w 	c #DFCAB9",
"x 	c #CCA57D",
"y 	c #CFAC87",
"z 	c #D0AF8D",
"A 	c #C4965E",
"B 	c #CEAC88",
"C 	c #D0AF8E",
"D 	c #CBA47B",
"E 	c #D7BCA3",
"F 	c #CAA47B",
"G 	c #D3B598",
"H 	c #E8D9CD",
"I 	c #CBA57C",
"J 	c #C69B69",
"K 	c #CFAE8C",
"L 	c #C39559",
"M 	c #CFAD8B",
"N 	c #D3B597",
"O 	c #D2B292",
"P 	c #D5B79C",
"Q 	c #D8BEA5",
"R 	c #CAA57C",
"S 	c #CCA67D",
"T 	c #DCC5B0",
"U 	c #C79D6D",
"V 	c #CAA378",
"W 	c #D1B18F",
"X 	c #D4B599",
"Y 	c #CDA983",
"Z 	c #C39254",
"` 	c #D0AD8A",
" .	c #C79D6E",
"..	c #D0AD8C",
"+.	c #D7BA9F",
"@.	c #CCA781",
"#.	c #D1B08F",
"$.	c #C79E6F",
"%.	c #CBA57D",
"&.	c #D7BDA4",
"*.	c #C39357",
"=.	c #CEA984",
"-.	c #C79D6A",
";.	c #CEAB87",
">.	c #E7D7CA",
",.	c #D2B393",
"'.	c #C79C6C",
").	c #C59966",
"!.	c #D6BBA1",
"~.	c #CFAD8A",
"{.	c #222121",
"].	c #000000",
"^.	c #1E1D1D",
"/.	c #0A0A0A",
"(.	c #D8BCA5",
"_.	c #CBA67E",
":.	c #CAA377",
"<.	c #323232",
"[.	c #242323",
"}.	c #323131",
"|.	c #2F2E2E",
"1.	c #171717",
"2.	c #111010",
"3.	c #272626",
"4.	c #C69A66",
"5.	c #CDA984",
"6.	c #DAC0AA",
"7.	c #CBA47C",
"8.	c #333333",
"9.	c #333232",
"0.	c #2D2C2C",
"a.	c #121212",
"b.	c #141313",
"c.	c #2E2D2D",
"d.	c #C79C6A",
"e.	c #DAC0A8",
"f.	c #D9BEA7",
"g.	c #D5B79A",
"h.	c #C89F72",
"i.	c #D2B394",
"j.	c #161616",
"k.	c #2F2F2F",
"l.	c #C9A071",
"m.	c #D3B496",
"n.	c #DFC8B5",
"o.	c #C69B66",
"p.	c #D2B294",
"q.	c #D7BBA1",
"r.	c #C29355",
"s.	c #CDA782",
"t.	c #D1AF8F",
"u.	c #DAC1AA",
"v.	c #D5B99D",
"w.	c #CEAA84",
"x.	c #C49760",
"y.	c #DDC6B2",
"z.	c #C69863",
"  . + @ # $ % & * = - ; > , ' ) ",
"! ~ { ] { ^ / ^ ( _ : < [ } | 1 ",
"2 3 4 5 6 7 8 9 0 a b c d e f g ",
"h i j k l m n o p q r s t u v t ",
"w x : y z / A B C D E F G a B H ",
"E I ] J K 0 2 L M J N m O   P Q ",
"R S T U V W X Y Z `  ...q +.u @.",
"@.I #.u $.%.&.( @ *.=.@ -.;.>.O ",
",.'.).!.~.{.].^./.{.{.(.q ' | _.",
"4 # :.<.[.}.].|.1.{.{.2.3.4.5.6.",
"G 7.].8.9.}.].0.a.a.0.b.c.].d.e.",
"f.g.].}.a.}.].0.a.].}.{.{.].h.i ",
"i.K ].{.{.}.].}.j.a.0.k.0.].h l.",
"m.n.^ ].].0.a.j.j.a.0.].].o.'.k ",
"| p.q.U a ].].].].].].i.d $.r.s.",
"t.u.u.k v.. I l w., x.5.=.y.b z."};
