/* XPM */
static char * Floor_xpm[] = {
"16 16 171 2",
"  	c #E0CBB9",
". 	c #D2B395",
"+ 	c #C79E6E",
"@ 	c #CAA277",
"# 	c #C89F70",
"$ 	c #DCC4AF",
"% 	c #C69965",
"& 	c #D0AF8C",
"* 	c #D7BBA2",
"= 	c #CFAC88",
"- 	c #DDC8B5",
"; 	c #E1CDBC",
"> 	c #E2D0C0",
", 	c #CEAA86",
"' 	c #CDA982",
") 	c #D7BCA2",
"! 	c #DAC2AB",
"~ 	c #E1CEBE",
"{ 	c #C59965",
"] 	c #C9A276",
"^ 	c #CDA882",
"/ 	c #D1B191",
"( 	c #D8BDA4",
"_ 	c #D2B191",
": 	c #D0AE8C",
"< 	c #E2CFC0",
"[ 	c #D6BAA0",
"} 	c #E3D1C1",
"| 	c #CFAC89",
"1 	c #D6B99F",
"2 	c #D3B497",
"3 	c #DBC4AE",
"4 	c #D3B396",
"5 	c #C59761",
"6 	c #D0AE8B",
"7 	c #C89E70",
"8 	c #C69A67",
"9 	c #D5B89C",
"0 	c #C79D6C",
"a 	c #DEC8B5",
"b 	c #C9A175",
"c 	c #DBC2AC",
"d 	c #DAC2AC",
"e 	c #D6B99D",
"f 	c #D6B99E",
"g 	c #D0B08F",
"h 	c #D0AE8D",
"i 	c #CCA780",
"j 	c #D9C2AA",
"k 	c #CBA47A",
"l 	c #CFAE8B",
"m 	c #C89E6F",
"n 	c #C39356",
"o 	c #C9A174",
"p 	c #CEAA85",
"q 	c #CBA57B",
"r 	c #CCA67E",
"s 	c #D8BDA5",
"t 	c #E3D0C1",
"u 	c #DEC8B4",
"v 	c #DFC9B6",
"w 	c #DFCAB9",
"x 	c #CCA57D",
"y 	c #CFAC87",
"z 	c #D0AF8D",
"A 	c #C4965E",
"B 	c #CEAC88",
"C 	c #D0AF8E",
"D 	c #CBA47B",
"E 	c #D7BCA3",
"F 	c #CAA47B",
"G 	c #D3B598",
"H 	c #E8D9CD",
"I 	c #CBA57C",
"J 	c #C69B69",
"K 	c #CFAE8C",
"L 	c #C39559",
"M 	c #CFAD8B",
"N 	c #D3B597",
"O 	c #D2B292",
"P 	c #D5B79C",
"Q 	c #D8BEA5",
"R 	c #CAA57C",
"S 	c #CCA67D",
"T 	c #DCC5B0",
"U 	c #C79D6D",
"V 	c #CAA378",
"W 	c #D1B18F",
"X 	c #D4B599",
"Y 	c #CDA983",
"Z 	c #C39254",
"` 	c #D0AD8A",
" .	c #C79D6E",
"..	c #D0AD8C",
"+.	c #D7BA9F",
"@.	c #CCA781",
"#.	c #D1B08F",
"$.	c #C79E6F",
"%.	c #CBA57D",
"&.	c #D7BDA4",
"*.	c #C39357",
"=.	c #CEA984",
"-.	c #C79D6A",
";.	c #CEAB87",
">.	c #E7D7CA",
",.	c #D2B393",
"'.	c #C79C6C",
").	c #C59966",
"!.	c #D6BBA1",
"~.	c #CFAD8A",
"{.	c #E0CDBB",
"].	c #D2B294",
"^.	c #C59862",
"/.	c #D8BCA5",
"(.	c #CBA67E",
"_.	c #CAA377",
":.	c #D5BA9F",
"<.	c #DAC0A8",
"[.	c #DAC1AA",
"}.	c #CDA881",
"|.	c #C89F72",
"1.	c #D1B091",
"2.	c #C69A66",
"3.	c #CDA984",
"4.	c #DAC0AA",
"5.	c #CBA47C",
"6.	c #D2B293",
"7.	c #C79B6A",
"8.	c #E4D2C3",
"9.	c #D4B79B",
"0.	c #E7D8CC",
"a.	c #C28F4E",
"b.	c #C79C6A",
"c.	c #D9BEA7",
"d.	c #D5B79A",
"e.	c #D8BEA6",
"f.	c #C79C6B",
"g.	c #DAC0A9",
"h.	c #CFAC8A",
"i.	c #C79E6C",
"j.	c #DDC7B3",
"k.	c #C1904F",
"l.	c #D2B394",
"m.	c #C59963",
"n.	c #D3B496",
"o.	c #E2CFBF",
"p.	c #C29152",
"q.	c #C9A071",
"r.	c #DFC8B5",
"s.	c #D7BCA4",
"t.	c #DCC4AE",
"u.	c #D4B89B",
"v.	c #C4965F",
"w.	c #D5B99F",
"x.	c #C89F71",
"y.	c #D7BAA0",
"z.	c #D5B99C",
"A.	c #D2B192",
"B.	c #C69B66",
"C.	c #D7BBA1",
"D.	c #CEAC87",
"E.	c #C69864",
"F.	c #DDC6B1",
"G.	c #C29355",
"H.	c #CDA782",
"I.	c #D1AF8F",
"J.	c #D5B99D",
"K.	c #CEAA84",
"L.	c #C49760",
"M.	c #DDC6B2",
"N.	c #C69863",
"  . + @ # $ % & * = - ; > , ' ) ",
"! ~ { ] { ^ / ^ ( _ : < [ } | 1 ",
"2 3 4 5 6 7 8 9 0 a b c d e f g ",
"h i j k l m n o p q r s t u v t ",
"w x : y z / A B C D E F G a B H ",
"E I ] J K 0 2 L M J N m O   P Q ",
"R S T U V W X Y Z `  ...q +.u @.",
"@.I #.u $.%.&.( @ *.=.@ -.;.>.O ",
",.'.).!.~.@ o {.]., ^./.q ' | (.",
"4 # _.@.l :.m <.[.}.^.|.1.2.3.4.",
"G 5.' % #.(.6.7.8.9.0.a.;.3.b.<.",
"c.d.#.;.e.f.g.h.i.j.%.f k.T |.i ",
"l.K m.n.#.2.p o.r f j.[.p.Z h q.",
"n.r.^ s.t.u.v.w.e.x.y.z.A.B.'.k ",
"| ].C.U a : D.E.F.D.# l.d $.G.H.",
"I.[.[.k J.. I l K., L.3.=.M.b N."};
