/* XPM */
static char * Player_xpm[] = {
"16 16 73 1",
" 	c None",
".	c #BDBDBD",
"+	c #D2D2D2",
"@	c #DADADA",
"#	c #D6D6D6",
"$	c #B8B8B8",
"%	c #919191",
"&	c #DBDBDB",
"*	c #FEFEFE",
"=	c #FFFFFF",
"-	c #F5F5F5",
";	c #C0C0C0",
">	c #9A9A9A",
",	c #F9F9F9",
"'	c #D0D0D0",
")	c #E9E9E9",
"!	c #F0F0F0",
"~	c #F4F4F4",
"{	c #B7B7B7",
"]	c #AEAEAE",
"^	c #C8C8C8",
"/	c #9B9B9B",
"(	c #292929",
"_	c #C6C6C6",
":	c #A7A7A7",
"<	c #161616",
"[	c #D5D5D5",
"}	c #EDEDED",
"|	c #737373",
"1	c #040404",
"2	c #000000",
"3	c #676767",
"4	c #141414",
"5	c #242424",
"6	c #A6A6A6",
"7	c #BCBCBC",
"8	c #CACACA",
"9	c #101010",
"0	c #404040",
"a	c #C1C1C1",
"b	c #A5A5A5",
"c	c #202020",
"d	c #262626",
"e	c #F7F7F7",
"f	c #8A8A8A",
"g	c #F6F6F6",
"h	c #939393",
"i	c #EBEBEB",
"j	c #D7D7D7",
"k	c #ACACAC",
"l	c #C7C7C7",
"m	c #FBFBFB",
"n	c #9E9E9E",
"o	c #B3B3B3",
"p	c #8B8B8B",
"q	c #D4D4D4",
"r	c #A2A2A2",
"s	c #E0E0E0",
"t	c #D3D3D3",
"u	c #EAEAEA",
"v	c #FAFAFA",
"w	c #E4E4E4",
"x	c #C9C9C9",
"y	c #CBCBCB",
"z	c #FCFCFC",
"A	c #6E6E6E",
"B	c #F2F2F2",
"C	c #E6E6E6",
"D	c #B2B2B2",
"E	c #9F9F9F",
"F	c #AAAAAA",
"G	c #C3C3C3",
"H	c #ADADAD",
"     .+@@#$     ",
"  %&*======-;   ",
" >,=========='  ",
" )==**====!~=={ ",
"]==^/(_==:%<[=} ",
".==|123=*4526== ",
"7==890a==bcd)=e ",
"fg============$ ",
" hi====j#===-k  ",
"   lm===,)@^nop ",
"     7qq&},===*r",
"     j=========j",
"     +==s=*t_u=[",
"     7==b=vwxy=k",
"      z=ABCDEFu ",
"      oG EH     "};
