/* XPM */
static char * Wall_xpm[] = {
"16 16 55 1",
" 	c #828282",
".	c #8A8A8A",
"+	c #7E7E7E",
"@	c #BFBFBF",
"#	c #929292",
"$	c #A9A9A9",
"%	c #B3B3B3",
"&	c #8C8C8C",
"*	c #B0B0B0",
"=	c #858585",
"-	c #BBBBBB",
";	c #ECECEC",
">	c #F5F5F5",
",	c #DCDCDC",
"'	c #D4D4D4",
")	c #E6E6E6",
"!	c #DDDDDD",
"~	c #ABABAB",
"{	c #AFAFAF",
"]	c #FFFFFF",
"^	c #B5B5B5",
"/	c #A8A8A8",
"(	c #C0C0C0",
"_	c #F4F4F4",
":	c #BABABA",
"<	c #979797",
"[	c #D2D2D2",
"}	c #787878",
"|	c #CACACA",
"1	c #C8C8C8",
"2	c #CDCDCD",
"3	c #9F9F9F",
"4	c #DADADA",
"5	c #E9E9E9",
"6	c #B7B7B7",
"7	c #CECECE",
"8	c #B8B8B8",
"9	c #D9D9D9",
"0	c #CFCFCF",
"a	c #ACACAC",
"b	c #A1A1A1",
"c	c #C7C7C7",
"d	c #A0A0A0",
"e	c #F7F7F7",
"f	c #DEDEDE",
"g	c #D0D0D0",
"h	c #8F8F8F",
"i	c #A5A5A5",
"j	c #909090",
"k	c #CCCCCC",
"l	c #757575",
"m	c #A7A7A7",
"n	c #949494",
"o	c #8E8E8E",
"p	c #C1C1C1",
" . +.@#$%%&@*%@=",
"-;>>>,@')%))>)!~",
"{]]]])@>]]]]]]]^",
"/]]]])@>]]]]]]]-",
"(>]]]>*>]]]]]]_:",
"<[)'''}''||''123",
"<[)>>>4>>55>>]]6",
"-)]]]]]]]))]]]]6",
"-)]]]]]]]77]]]]6",
"89>>>>>>):0]>>>:",
"a*'*''''):bc2''d",
"d>](]]]]]]]ef]]g",
"<]]'>]]]]]]]1]]g",
"<]]))]]]]]]]'>](",
"hi%bjk7))>>]77]k",
"l6%am6mjbnnnommp"};
