/* XPM */
static char * Player_xpm[] = {
"64 64 133 2",
"  	c #E0CBB9",
". 	c #D2B395",
"+ 	c #C79E6E",
"@ 	c #CAA277",
"# 	c #C89F70",
"$ 	c #BDBDBD",
"% 	c #D2D2D2",
"& 	c #DADADA",
"* 	c #D6D6D6",
"= 	c #B8B8B8",
"- 	c #E1CDBC",
"; 	c #E2D0C0",
"> 	c #CEAA86",
", 	c #CDA982",
"' 	c #D7BCA2",
") 	c #DAC2AB",
"! 	c #E1CEBE",
"~ 	c #919191",
"{ 	c #DBDBDB",
"] 	c #FEFEFE",
"^ 	c #FFFFFF",
"/ 	c #F5F5F5",
"( 	c #C0C0C0",
"_ 	c #E3D1C1",
": 	c #CFAC89",
"< 	c #D6B99F",
"[ 	c #D3B497",
"} 	c #9A9A9A",
"| 	c #F9F9F9",
"1 	c #D0D0D0",
"2 	c #D6B99E",
"3 	c #D0B08F",
"4 	c #D0AE8D",
"5 	c #E9E9E9",
"6 	c #F0F0F0",
"7 	c #F4F4F4",
"8 	c #B7B7B7",
"9 	c #E3D0C1",
"0 	c #AEAEAE",
"a 	c #C8C8C8",
"b 	c #9B9B9B",
"c 	c #292929",
"d 	c #C6C6C6",
"e 	c #A7A7A7",
"f 	c #161616",
"g 	c #D5D5D5",
"h 	c #EDEDED",
"i 	c #E8D9CD",
"j 	c #737373",
"k 	c #040404",
"l 	c #000000",
"m 	c #676767",
"n 	c #141414",
"o 	c #242424",
"p 	c #A6A6A6",
"q 	c #D8BEA5",
"r 	c #BCBCBC",
"s 	c #CACACA",
"t 	c #101010",
"u 	c #404040",
"v 	c #C1C1C1",
"w 	c #A5A5A5",
"x 	c #202020",
"y 	c #262626",
"z 	c #F7F7F7",
"A 	c #CCA781",
"B 	c #8A8A8A",
"C 	c #F6F6F6",
"D 	c #D2B292",
"E 	c #D2B393",
"F 	c #939393",
"G 	c #EBEBEB",
"H 	c #D7D7D7",
"I 	c #ACACAC",
"J 	c #CBA67E",
"K 	c #D3B396",
"L 	c #CAA377",
"M 	c #C7C7C7",
"N 	c #FBFBFB",
"O 	c #9E9E9E",
"P 	c #B3B3B3",
"Q 	c #8B8B8B",
"R 	c #DAC0AA",
"S 	c #D3B598",
"T 	c #CBA47C",
"U 	c #C69965",
"V 	c #D1B08F",
"W 	c #D4D4D4",
"X 	c #A2A2A2",
"Y 	c #D9BEA7",
"Z 	c #D5B79A",
"` 	c #CEAB87",
" .	c #D8BEA6",
"..	c #D2B394",
"+.	c #CFAE8C",
"@.	c #C59963",
"#.	c #D3B496",
"$.	c #E0E0E0",
"%.	c #D3D3D3",
"&.	c #EAEAEA",
"*.	c #DFC8B5",
"=.	c #CDA882",
"-.	c #D7BCA4",
";.	c #DCC4AE",
">.	c #FAFAFA",
",.	c #E4E4E4",
"'.	c #C9C9C9",
").	c #CBCBCB",
"!.	c #D2B294",
"~.	c #D7BBA1",
"{.	c #C79D6D",
"].	c #DEC8B5",
"^.	c #D0AE8C",
"/.	c #FCFCFC",
"(.	c #6E6E6E",
"_.	c #F2F2F2",
":.	c #E6E6E6",
"<.	c #B2B2B2",
"[.	c #9F9F9F",
"}.	c #AAAAAA",
"|.	c #CDA782",
"1.	c #D1AF8F",
"2.	c #DAC1AA",
"3.	c #CBA47A",
"4.	c #D5B99D",
"5.	c #C3C3C3",
"6.	c #CEAA84",
"7.	c #ADADAD",
"8.	c #CDA984",
"9.	c #CEA984",
"0.	c #DDC6B2",
"a.	c #C9A175",
"b.	c #C69863",
"        . . . . + + + + @ @ @ @ # # # # $ $ $ $ % % % % & & & & & & & & * * * * = = = = - - - - ; ; ; ; > > > > , , , , ' ' ' ' ",
"        . . . . + + + + @ @ @ @ # # # # $ $ $ $ % % % % & & & & & & & & * * * * = = = = - - - - ; ; ; ; > > > > , , , , ' ' ' ' ",
"        . . . . + + + + @ @ @ @ # # # # $ $ $ $ % % % % & & & & & & & & * * * * = = = = - - - - ; ; ; ; > > > > , , , , ' ' ' ' ",
"        . . . . + + + + @ @ @ @ # # # # $ $ $ $ % % % % & & & & & & & & * * * * = = = = - - - - ; ; ; ; > > > > , , , , ' ' ' ' ",
") ) ) ) ! ! ! ! ~ ~ ~ ~ { { { { ] ] ] ] ^ ^ ^ ^ ^ ^ ^ ^ ^ ^ ^ ^ ^ ^ ^ ^ ^ ^ ^ ^ ^ ^ ^ ^ / / / / ( ( ( ( _ _ _ _ : : : : < < < < ",
") ) ) ) ! ! ! ! ~ ~ ~ ~ { { { { ] ] ] ] ^ ^ ^ ^ ^ ^ ^ ^ ^ ^ ^ ^ ^ ^ ^ ^ ^ ^ ^ ^ ^ ^ ^ ^ / / / / ( ( ( ( _ _ _ _ : : : : < < < < ",
") ) ) ) ! ! ! ! ~ ~ ~ ~ { { { { ] ] ] ] ^ ^ ^ ^ ^ ^ ^ ^ ^ ^ ^ ^ ^ ^ ^ ^ ^ ^ ^ ^ ^ ^ ^ ^ / / / / ( ( ( ( _ _ _ _ : : : : < < < < ",
") ) ) ) ! ! ! ! ~ ~ ~ ~ { { { { ] ] ] ] ^ ^ ^ ^ ^ ^ ^ ^ ^ ^ ^ ^ ^ ^ ^ ^ ^ ^ ^ ^ ^ ^ ^ ^ / / / / ( ( ( ( _ _ _ _ : : : : < < < < ",
"[ [ [ [ } } } } | | | | ^ ^ ^ ^ ^ ^ ^ ^ ^ ^ ^ ^ ^ ^ ^ ^ ^ ^ ^ ^ ^ ^ ^ ^ ^ ^ ^ ^ ^ ^ ^ ^ ^ ^ ^ ^ ^ ^ ^ ^ 1 1 1 1 2 2 2 2 3 3 3 3 ",
"[ [ [ [ } } } } | | | | ^ ^ ^ ^ ^ ^ ^ ^ ^ ^ ^ ^ ^ ^ ^ ^ ^ ^ ^ ^ ^ ^ ^ ^ ^ ^ ^ ^ ^ ^ ^ ^ ^ ^ ^ ^ ^ ^ ^ ^ 1 1 1 1 2 2 2 2 3 3 3 3 ",
"[ [ [ [ } } } } | | | | ^ ^ ^ ^ ^ ^ ^ ^ ^ ^ ^ ^ ^ ^ ^ ^ ^ ^ ^ ^ ^ ^ ^ ^ ^ ^ ^ ^ ^ ^ ^ ^ ^ ^ ^ ^ ^ ^ ^ ^ 1 1 1 1 2 2 2 2 3 3 3 3 ",
"[ [ [ [ } } } } | | | | ^ ^ ^ ^ ^ ^ ^ ^ ^ ^ ^ ^ ^ ^ ^ ^ ^ ^ ^ ^ ^ ^ ^ ^ ^ ^ ^ ^ ^ ^ ^ ^ ^ ^ ^ ^ ^ ^ ^ ^ 1 1 1 1 2 2 2 2 3 3 3 3 ",
"4 4 4 4 5 5 5 5 ^ ^ ^ ^ ^ ^ ^ ^ ] ] ] ] ] ] ] ] ^ ^ ^ ^ ^ ^ ^ ^ ^ ^ ^ ^ ^ ^ ^ ^ 6 6 6 6 7 7 7 7 ^ ^ ^ ^ ^ ^ ^ ^ 8 8 8 8 9 9 9 9 ",
"4 4 4 4 5 5 5 5 ^ ^ ^ ^ ^ ^ ^ ^ ] ] ] ] ] ] ] ] ^ ^ ^ ^ ^ ^ ^ ^ ^ ^ ^ ^ ^ ^ ^ ^ 6 6 6 6 7 7 7 7 ^ ^ ^ ^ ^ ^ ^ ^ 8 8 8 8 9 9 9 9 ",
"4 4 4 4 5 5 5 5 ^ ^ ^ ^ ^ ^ ^ ^ ] ] ] ] ] ] ] ] ^ ^ ^ ^ ^ ^ ^ ^ ^ ^ ^ ^ ^ ^ ^ ^ 6 6 6 6 7 7 7 7 ^ ^ ^ ^ ^ ^ ^ ^ 8 8 8 8 9 9 9 9 ",
"4 4 4 4 5 5 5 5 ^ ^ ^ ^ ^ ^ ^ ^ ] ] ] ] ] ] ] ] ^ ^ ^ ^ ^ ^ ^ ^ ^ ^ ^ ^ ^ ^ ^ ^ 6 6 6 6 7 7 7 7 ^ ^ ^ ^ ^ ^ ^ ^ 8 8 8 8 9 9 9 9 ",
"0 0 0 0 ^ ^ ^ ^ ^ ^ ^ ^ a a a a b b b b c c c c d d d d ^ ^ ^ ^ ^ ^ ^ ^ e e e e ~ ~ ~ ~ f f f f g g g g ^ ^ ^ ^ h h h h i i i i ",
"0 0 0 0 ^ ^ ^ ^ ^ ^ ^ ^ a a a a b b b b c c c c d d d d ^ ^ ^ ^ ^ ^ ^ ^ e e e e ~ ~ ~ ~ f f f f g g g g ^ ^ ^ ^ h h h h i i i i ",
"0 0 0 0 ^ ^ ^ ^ ^ ^ ^ ^ a a a a b b b b c c c c d d d d ^ ^ ^ ^ ^ ^ ^ ^ e e e e ~ ~ ~ ~ f f f f g g g g ^ ^ ^ ^ h h h h i i i i ",
"0 0 0 0 ^ ^ ^ ^ ^ ^ ^ ^ a a a a b b b b c c c c d d d d ^ ^ ^ ^ ^ ^ ^ ^ e e e e ~ ~ ~ ~ f f f f g g g g ^ ^ ^ ^ h h h h i i i i ",
"$ $ $ $ ^ ^ ^ ^ ^ ^ ^ ^ j j j j k k k k l l l l m m m m ^ ^ ^ ^ ] ] ] ] n n n n o o o o l l l l p p p p ^ ^ ^ ^ ^ ^ ^ ^ q q q q ",
"$ $ $ $ ^ ^ ^ ^ ^ ^ ^ ^ j j j j k k k k l l l l m m m m ^ ^ ^ ^ ] ] ] ] n n n n o o o o l l l l p p p p ^ ^ ^ ^ ^ ^ ^ ^ q q q q ",
"$ $ $ $ ^ ^ ^ ^ ^ ^ ^ ^ j j j j k k k k l l l l m m m m ^ ^ ^ ^ ] ] ] ] n n n n o o o o l l l l p p p p ^ ^ ^ ^ ^ ^ ^ ^ q q q q ",
"$ $ $ $ ^ ^ ^ ^ ^ ^ ^ ^ j j j j k k k k l l l l m m m m ^ ^ ^ ^ ] ] ] ] n n n n o o o o l l l l p p p p ^ ^ ^ ^ ^ ^ ^ ^ q q q q ",
"r r r r ^ ^ ^ ^ ^ ^ ^ ^ s s s s t t t t u u u u v v v v ^ ^ ^ ^ ^ ^ ^ ^ w w w w x x x x y y y y 5 5 5 5 ^ ^ ^ ^ z z z z A A A A ",
"r r r r ^ ^ ^ ^ ^ ^ ^ ^ s s s s t t t t u u u u v v v v ^ ^ ^ ^ ^ ^ ^ ^ w w w w x x x x y y y y 5 5 5 5 ^ ^ ^ ^ z z z z A A A A ",
"r r r r ^ ^ ^ ^ ^ ^ ^ ^ s s s s t t t t u u u u v v v v ^ ^ ^ ^ ^ ^ ^ ^ w w w w x x x x y y y y 5 5 5 5 ^ ^ ^ ^ z z z z A A A A ",
"r r r r ^ ^ ^ ^ ^ ^ ^ ^ s s s s t t t t u u u u v v v v ^ ^ ^ ^ ^ ^ ^ ^ w w w w x x x x y y y y 5 5 5 5 ^ ^ ^ ^ z z z z A A A A ",
"B B B B C C C C ^ ^ ^ ^ ^ ^ ^ ^ ^ ^ ^ ^ ^ ^ ^ ^ ^ ^ ^ ^ ^ ^ ^ ^ ^ ^ ^ ^ ^ ^ ^ ^ ^ ^ ^ ^ ^ ^ ^ ^ ^ ^ ^ ^ ^ ^ ^ ^ = = = = D D D D ",
"B B B B C C C C ^ ^ ^ ^ ^ ^ ^ ^ ^ ^ ^ ^ ^ ^ ^ ^ ^ ^ ^ ^ ^ ^ ^ ^ ^ ^ ^ ^ ^ ^ ^ ^ ^ ^ ^ ^ ^ ^ ^ ^ ^ ^ ^ ^ ^ ^ ^ ^ = = = = D D D D ",
"B B B B C C C C ^ ^ ^ ^ ^ ^ ^ ^ ^ ^ ^ ^ ^ ^ ^ ^ ^ ^ ^ ^ ^ ^ ^ ^ ^ ^ ^ ^ ^ ^ ^ ^ ^ ^ ^ ^ ^ ^ ^ ^ ^ ^ ^ ^ ^ ^ ^ ^ = = = = D D D D ",
"B B B B C C C C ^ ^ ^ ^ ^ ^ ^ ^ ^ ^ ^ ^ ^ ^ ^ ^ ^ ^ ^ ^ ^ ^ ^ ^ ^ ^ ^ ^ ^ ^ ^ ^ ^ ^ ^ ^ ^ ^ ^ ^ ^ ^ ^ ^ ^ ^ ^ ^ = = = = D D D D ",
"E E E E F F F F G G G G ^ ^ ^ ^ ^ ^ ^ ^ ^ ^ ^ ^ ^ ^ ^ ^ H H H H * * * * ^ ^ ^ ^ ^ ^ ^ ^ ^ ^ ^ ^ / / / / I I I I : : : : J J J J ",
"E E E E F F F F G G G G ^ ^ ^ ^ ^ ^ ^ ^ ^ ^ ^ ^ ^ ^ ^ ^ H H H H * * * * ^ ^ ^ ^ ^ ^ ^ ^ ^ ^ ^ ^ / / / / I I I I : : : : J J J J ",
"E E E E F F F F G G G G ^ ^ ^ ^ ^ ^ ^ ^ ^ ^ ^ ^ ^ ^ ^ ^ H H H H * * * * ^ ^ ^ ^ ^ ^ ^ ^ ^ ^ ^ ^ / / / / I I I I : : : : J J J J ",
"E E E E F F F F G G G G ^ ^ ^ ^ ^ ^ ^ ^ ^ ^ ^ ^ ^ ^ ^ ^ H H H H * * * * ^ ^ ^ ^ ^ ^ ^ ^ ^ ^ ^ ^ / / / / I I I I : : : : J J J J ",
"K K K K # # # # L L L L M M M M N N N N ^ ^ ^ ^ ^ ^ ^ ^ ^ ^ ^ ^ | | | | 5 5 5 5 & & & & a a a a O O O O P P P P Q Q Q Q R R R R ",
"K K K K # # # # L L L L M M M M N N N N ^ ^ ^ ^ ^ ^ ^ ^ ^ ^ ^ ^ | | | | 5 5 5 5 & & & & a a a a O O O O P P P P Q Q Q Q R R R R ",
"K K K K # # # # L L L L M M M M N N N N ^ ^ ^ ^ ^ ^ ^ ^ ^ ^ ^ ^ | | | | 5 5 5 5 & & & & a a a a O O O O P P P P Q Q Q Q R R R R ",
"K K K K # # # # L L L L M M M M N N N N ^ ^ ^ ^ ^ ^ ^ ^ ^ ^ ^ ^ | | | | 5 5 5 5 & & & & a a a a O O O O P P P P Q Q Q Q R R R R ",
"S S S S T T T T , , , , U U U U V V V V r r r r W W W W W W W W { { { { h h h h | | | | ^ ^ ^ ^ ^ ^ ^ ^ ^ ^ ^ ^ ] ] ] ] X X X X ",
"S S S S T T T T , , , , U U U U V V V V r r r r W W W W W W W W { { { { h h h h | | | | ^ ^ ^ ^ ^ ^ ^ ^ ^ ^ ^ ^ ] ] ] ] X X X X ",
"S S S S T T T T , , , , U U U U V V V V r r r r W W W W W W W W { { { { h h h h | | | | ^ ^ ^ ^ ^ ^ ^ ^ ^ ^ ^ ^ ] ] ] ] X X X X ",
"S S S S T T T T , , , , U U U U V V V V r r r r W W W W W W W W { { { { h h h h | | | | ^ ^ ^ ^ ^ ^ ^ ^ ^ ^ ^ ^ ] ] ] ] X X X X ",
"Y Y Y Y Z Z Z Z V V V V ` ` ` `  . . . .H H H H ^ ^ ^ ^ ^ ^ ^ ^ ^ ^ ^ ^ ^ ^ ^ ^ ^ ^ ^ ^ ^ ^ ^ ^ ^ ^ ^ ^ ^ ^ ^ ^ ^ ^ ^ ^ H H H H ",
"Y Y Y Y Z Z Z Z V V V V ` ` ` `  . . . .H H H H ^ ^ ^ ^ ^ ^ ^ ^ ^ ^ ^ ^ ^ ^ ^ ^ ^ ^ ^ ^ ^ ^ ^ ^ ^ ^ ^ ^ ^ ^ ^ ^ ^ ^ ^ ^ H H H H ",
"Y Y Y Y Z Z Z Z V V V V ` ` ` `  . . . .H H H H ^ ^ ^ ^ ^ ^ ^ ^ ^ ^ ^ ^ ^ ^ ^ ^ ^ ^ ^ ^ ^ ^ ^ ^ ^ ^ ^ ^ ^ ^ ^ ^ ^ ^ ^ ^ H H H H ",
"Y Y Y Y Z Z Z Z V V V V ` ` ` `  . . . .H H H H ^ ^ ^ ^ ^ ^ ^ ^ ^ ^ ^ ^ ^ ^ ^ ^ ^ ^ ^ ^ ^ ^ ^ ^ ^ ^ ^ ^ ^ ^ ^ ^ ^ ^ ^ ^ H H H H ",
"........+.+.+.+.@.@.@.@.#.#.#.#.V V V V % % % % ^ ^ ^ ^ ^ ^ ^ ^ $.$.$.$.^ ^ ^ ^ ] ] ] ] %.%.%.%.d d d d &.&.&.&.^ ^ ^ ^ g g g g ",
"........+.+.+.+.@.@.@.@.#.#.#.#.V V V V % % % % ^ ^ ^ ^ ^ ^ ^ ^ $.$.$.$.^ ^ ^ ^ ] ] ] ] %.%.%.%.d d d d &.&.&.&.^ ^ ^ ^ g g g g ",
"........+.+.+.+.@.@.@.@.#.#.#.#.V V V V % % % % ^ ^ ^ ^ ^ ^ ^ ^ $.$.$.$.^ ^ ^ ^ ] ] ] ] %.%.%.%.d d d d &.&.&.&.^ ^ ^ ^ g g g g ",
"........+.+.+.+.@.@.@.@.#.#.#.#.V V V V % % % % ^ ^ ^ ^ ^ ^ ^ ^ $.$.$.$.^ ^ ^ ^ ] ] ] ] %.%.%.%.d d d d &.&.&.&.^ ^ ^ ^ g g g g ",
"#.#.#.#.*.*.*.*.=.=.=.=.-.-.-.-.;.;.;.;.r r r r ^ ^ ^ ^ ^ ^ ^ ^ w w w w ^ ^ ^ ^ >.>.>.>.,.,.,.,.'.'.'.'.).).).).^ ^ ^ ^ I I I I ",
"#.#.#.#.*.*.*.*.=.=.=.=.-.-.-.-.;.;.;.;.r r r r ^ ^ ^ ^ ^ ^ ^ ^ w w w w ^ ^ ^ ^ >.>.>.>.,.,.,.,.'.'.'.'.).).).).^ ^ ^ ^ I I I I ",
"#.#.#.#.*.*.*.*.=.=.=.=.-.-.-.-.;.;.;.;.r r r r ^ ^ ^ ^ ^ ^ ^ ^ w w w w ^ ^ ^ ^ >.>.>.>.,.,.,.,.'.'.'.'.).).).).^ ^ ^ ^ I I I I ",
"#.#.#.#.*.*.*.*.=.=.=.=.-.-.-.-.;.;.;.;.r r r r ^ ^ ^ ^ ^ ^ ^ ^ w w w w ^ ^ ^ ^ >.>.>.>.,.,.,.,.'.'.'.'.).).).).^ ^ ^ ^ I I I I ",
": : : : !.!.!.!.~.~.~.~.{.{.{.{.].].].].^.^.^.^././././.^ ^ ^ ^ (.(.(.(._._._._.:.:.:.:.<.<.<.<.[.[.[.[.}.}.}.}.&.&.&.&.|.|.|.|.",
": : : : !.!.!.!.~.~.~.~.{.{.{.{.].].].].^.^.^.^././././.^ ^ ^ ^ (.(.(.(._._._._.:.:.:.:.<.<.<.<.[.[.[.[.}.}.}.}.&.&.&.&.|.|.|.|.",
": : : : !.!.!.!.~.~.~.~.{.{.{.{.].].].].^.^.^.^././././.^ ^ ^ ^ (.(.(.(._._._._.:.:.:.:.<.<.<.<.[.[.[.[.}.}.}.}.&.&.&.&.|.|.|.|.",
": : : : !.!.!.!.~.~.~.~.{.{.{.{.].].].].^.^.^.^././././.^ ^ ^ ^ (.(.(.(._._._._.:.:.:.:.<.<.<.<.[.[.[.[.}.}.}.}.&.&.&.&.|.|.|.|.",
"1.1.1.1.2.2.2.2.2.2.2.2.3.3.3.3.4.4.4.4.. . . . P P P P 5.5.5.5.6.6.6.6.[.[.[.[.7.7.7.7.8.8.8.8.9.9.9.9.0.0.0.0.a.a.a.a.b.b.b.b.",
"1.1.1.1.2.2.2.2.2.2.2.2.3.3.3.3.4.4.4.4.. . . . P P P P 5.5.5.5.6.6.6.6.[.[.[.[.7.7.7.7.8.8.8.8.9.9.9.9.0.0.0.0.a.a.a.a.b.b.b.b.",
"1.1.1.1.2.2.2.2.2.2.2.2.3.3.3.3.4.4.4.4.. . . . P P P P 5.5.5.5.6.6.6.6.[.[.[.[.7.7.7.7.8.8.8.8.9.9.9.9.0.0.0.0.a.a.a.a.b.b.b.b.",
"1.1.1.1.2.2.2.2.2.2.2.2.3.3.3.3.4.4.4.4.. . . . P P P P 5.5.5.5.6.6.6.6.[.[.[.[.7.7.7.7.8.8.8.8.9.9.9.9.0.0.0.0.a.a.a.a.b.b.b.b."};
